<?xml version="1.0" encoding="utf-8"?>
<!-- Generator: Adobe Illustrator 25.1.0, SVG Export Plug-In . SVG Version: 6.00 Build 0)  -->
<svg version="1.1" id="Layer_1" xmlns="http://www.w3.org/2000/svg" xmlns:xlink="http://www.w3.org/1999/xlink" x="0px" y="0px"
	 viewBox="0 0 1231.81 1186.88" style="enable-background:new 0 0 1231.81 1186.88;" xml:space="preserve">
<style type="text/css">
	.st0{fill:#ECECEC;}
	.st1{fill:#123446;}
	.st2{fill:none;}
</style>
<g>
	<path id="XMLID_12_" class="st0" d="M1146.65,882.84c0.4,126.47-101.8,229.31-228.27,229.71l-595,1.87
		c-126.47,0.4-229.31-101.8-229.71-228.27l-1.87-595C91.4,164.68,193.6,61.84,320.06,61.44l595-1.87
		c126.47-0.4,229.31,101.8,229.71,228.27"/>
	<path class="st1" d="M878.13,425.49c-16.07-62.49-47.38-114.85-97.01-156.65c-42.99-36.21-92.46-58.35-148.82-68.71
		c-62.29-11.44-121.2-2.66-177.98,21.02c-52.8,22.02-95.76,56.59-128.29,103.95c-34.04,49.56-52.66,103.4-53.91,162.72
		c-1.05,50.29-0.38,100.62-0.46,150.94c-0.02,12.76-0.64,25.55,0.2,38.26c0.89,13.45,10.8,22.21,23.95,22.83
		c14.99,0.71,24.44-6.94,26.53-22.02c0.67-4.88,0.26-9.9,0.26-14.86c0.04-51.73-0.33-103.47,0.23-155.2
		c0.4-36.98,3.99-74.3,19.98-107.84c31.41-65.91,80.48-114.62,152.63-139.12c53.93-18.31,107.63-20.68,161.43-1.66
		C760.19,295.7,820.81,366.2,832.68,474.22c1.04,9.53,1.7,19.11,2.11,28.71l0.24,20.75c0.17,8.56,0.28,17.13,0.41,25.69
		c0.08,23.36,0.1,46.71,0.04,70.07c-0.33,21.24-0.93,42.47-2.25,63.65c-3.53,56.72-49.9,111.23-108.05,131.48
		c-74.27,25.86-149.7-8.18-189.42-66.56c-15.48-22.76-25.49-49.29-25.45-77.88c0,0,2.54-30.16-28.16-28.34
		c-26.19,1.56-21.95,33.14-21.95,33.14c0.98,62.65,29.24,112.33,77.48,152.06c54.06,44.51,117.74,54.02,184.08,41.43
		c60.24-11.44,106.43-46.11,136.75-99.14c13.09-22.89,21.52-46.87,25.09-72.19c2.14-4.61,6.2-77.48,6.2-113.01
		C891.55,533,891.52,477.55,878.13,425.49z"/>
	<path class="st1" d="M738.92,488.18c0.05-28.59-9.96-55.12-25.45-77.88c-39.71-58.38-115.15-92.41-189.42-66.56
		C465.9,364,419.53,418.52,416,475.23c-1.32,21.17-1.93,42.4-2.25,63.65c-0.06,23.36-0.04,46.71,0.04,70.07
		c0.13,8.57,0.24,17.13,0.41,25.69l0.24,20.75c0.41,9.6,1.07,19.18,2.11,28.71c11.87,108.02,72.48,178.52,175.79,215.06
		c53.79,19.03,107.5,16.66,161.43-1.66c72.15-24.5,121.22-73.21,152.63-139.12c15.98-33.54,19.58-70.87,19.98-107.84
		c0.55-51.73,0.19-103.46,0.23-155.2c0.01-4.96-0.41-9.99,0.26-14.86c2.09-15.08,11.54-22.73,26.53-22.02
		c13.16,0.62,23.07,9.37,23.95,22.83c0.83,12.7,0.22,25.5,0.2,38.26c-0.08,50.31,0.59,100.64-0.46,150.94
		c-1.24,59.32-19.87,113.16-53.91,162.72c-32.53,47.36-75.49,81.94-128.29,103.95c-56.78,23.68-115.69,32.46-177.98,21.02
		c-56.36-10.35-105.83-32.5-148.82-68.71c-49.62-41.79-80.94-94.15-97.01-156.65c-13.39-52.06-13.42-107.51-11.67-158.58
		c0-35.53,1.49-58.97,3.08-90.73c0.27-5.47,1.02-13.69,3.13-22.28c3.57-25.32,14.56-53.13,29.16-75.09
		c32.22-48.47,73.36-82.63,132.68-96.24c65.82-15.1,130.91-5.18,184.97,39.33c48.24,39.72,79.37,90.13,80.36,152.77
		c-0.61,0.28,5.46,27.78-12.34,35.33C780.46,517.34,738.24,530.62,738.92,488.18C739.74,436.8,738.92,488.18,738.92,488.18"/>
	<path class="st1" d="M547.36,451.68c-3.29-16.09-17.53-28.19-34.59-28.19c-19.5,0-35.3,15.81-35.3,35.31
		c0,13.38,7.44,25.01,18.4,31c-33.81,8.26-59.09,40.78-59.36,79.73c0.15,6.12,5.16,11.03,11.31,11.03h129.91
		c6.16,0,11.16-4.91,11.31-11.03c-0.27-38.95-25.55-71.47-59.36-79.73c10.97-5.99,18.41-17.63,18.41-31
		C548.07,456.35,547.83,453.97,547.36,451.68"/>
	<path class="st1" d="M659.67,512.05c-3.29-16.09-17.53-28.19-34.59-28.19c-19.5,0-35.3,15.81-35.3,35.31
		c0,13.38,7.44,25.01,18.4,31c-33.81,8.26-59.09,40.78-59.36,79.73c0.15,6.12,5.16,11.03,11.31,11.03h129.91
		c6.16,0,11.16-4.91,11.31-11.03c-0.27-38.95-25.55-71.47-59.36-79.73c10.97-5.99,18.41-17.63,18.41-31
		C660.38,516.73,660.14,514.35,659.67,512.05"/>
	<path class="st1" d="M771.06,553.18c-3.29-16.09-17.53-28.19-34.59-28.19c-19.5,0-35.3,15.81-35.3,35.31
		c0,13.38,7.44,25.01,18.4,31c-33.81,8.26-59.09,40.78-59.36,79.73c0.15,6.12,5.16,11.03,11.31,11.03h129.91
		c6.16,0,11.16-4.91,11.31-11.03c-0.27-38.95-25.55-71.47-59.36-79.73c10.97-5.99,18.41-17.63,18.41-31
		C771.78,557.85,771.53,555.48,771.06,553.18"/>
	<rect x="55.75" y="20.47" class="st2" width="1127.49" height="1116.28"/>
</g>
</svg>
